<mxfile host="app.diagrams.net" modified="2023-05-14T23:28:31.890Z" agent="Mozilla/5.0 (Windows NT 10.0; Win64; x64) AppleWebKit/537.36 (KHTML, like Gecko) Chrome/113.0.0.0 Safari/537.36" etag="dhVcRIsvT0cue2e1hc7I" version="21.3.0" type="device">
  <diagram name="Страница 1" id="5s9jRVQm5m-tGdMy8qvE">
    <mxGraphModel dx="1434" dy="788" grid="1" gridSize="10" guides="1" tooltips="1" connect="1" arrows="1" fold="1" page="1" pageScale="1" pageWidth="827" pageHeight="1169" math="0" shadow="0">
      <root>
        <mxCell id="0" />
        <mxCell id="1" parent="0" />
        <mxCell id="lf4h5KO6Hu7A6829tgaT-3" style="edgeStyle=orthogonalEdgeStyle;rounded=0;orthogonalLoop=1;jettySize=auto;html=1;entryX=0.5;entryY=0;entryDx=0;entryDy=0;" edge="1" parent="1" source="lf4h5KO6Hu7A6829tgaT-1" target="lf4h5KO6Hu7A6829tgaT-2">
          <mxGeometry relative="1" as="geometry" />
        </mxCell>
        <mxCell id="lf4h5KO6Hu7A6829tgaT-1" value="Начало" style="strokeWidth=2;html=1;shape=mxgraph.flowchart.start_1;whiteSpace=wrap;" vertex="1" parent="1">
          <mxGeometry x="364" y="60" width="100" height="60" as="geometry" />
        </mxCell>
        <mxCell id="lf4h5KO6Hu7A6829tgaT-5" style="edgeStyle=orthogonalEdgeStyle;rounded=0;orthogonalLoop=1;jettySize=auto;html=1;" edge="1" parent="1" source="lf4h5KO6Hu7A6829tgaT-2" target="lf4h5KO6Hu7A6829tgaT-4">
          <mxGeometry relative="1" as="geometry" />
        </mxCell>
        <mxCell id="lf4h5KO6Hu7A6829tgaT-2" value="Считывание предыдущих сборок из памяти" style="rounded=1;whiteSpace=wrap;html=1;" vertex="1" parent="1">
          <mxGeometry x="354" y="150" width="120" height="60" as="geometry" />
        </mxCell>
        <mxCell id="lf4h5KO6Hu7A6829tgaT-10" style="edgeStyle=orthogonalEdgeStyle;rounded=0;orthogonalLoop=1;jettySize=auto;html=1;" edge="1" parent="1" source="lf4h5KO6Hu7A6829tgaT-4" target="lf4h5KO6Hu7A6829tgaT-6">
          <mxGeometry relative="1" as="geometry" />
        </mxCell>
        <mxCell id="lf4h5KO6Hu7A6829tgaT-4" value="Проверка на наличии предыдущих сборок" style="rounded=1;whiteSpace=wrap;html=1;" vertex="1" parent="1">
          <mxGeometry x="354" y="240" width="120" height="60" as="geometry" />
        </mxCell>
        <mxCell id="lf4h5KO6Hu7A6829tgaT-8" style="edgeStyle=orthogonalEdgeStyle;rounded=0;orthogonalLoop=1;jettySize=auto;html=1;entryX=0.5;entryY=0;entryDx=0;entryDy=0;" edge="1" parent="1" source="lf4h5KO6Hu7A6829tgaT-6" target="lf4h5KO6Hu7A6829tgaT-7">
          <mxGeometry relative="1" as="geometry" />
        </mxCell>
        <mxCell id="lf4h5KO6Hu7A6829tgaT-13" style="edgeStyle=orthogonalEdgeStyle;rounded=0;orthogonalLoop=1;jettySize=auto;html=1;entryX=1;entryY=0.5;entryDx=0;entryDy=0;" edge="1" parent="1" source="lf4h5KO6Hu7A6829tgaT-6" target="lf4h5KO6Hu7A6829tgaT-11">
          <mxGeometry relative="1" as="geometry" />
        </mxCell>
        <mxCell id="lf4h5KO6Hu7A6829tgaT-6" value="Есть ли сборки?" style="rhombus;whiteSpace=wrap;html=1;" vertex="1" parent="1">
          <mxGeometry x="374" y="330" width="80" height="80" as="geometry" />
        </mxCell>
        <mxCell id="lf4h5KO6Hu7A6829tgaT-12" style="edgeStyle=orthogonalEdgeStyle;rounded=0;orthogonalLoop=1;jettySize=auto;html=1;entryX=0;entryY=0.5;entryDx=0;entryDy=0;" edge="1" parent="1" source="lf4h5KO6Hu7A6829tgaT-7" target="lf4h5KO6Hu7A6829tgaT-11">
          <mxGeometry relative="1" as="geometry" />
        </mxCell>
        <mxCell id="lf4h5KO6Hu7A6829tgaT-7" value="Добавление этих сборок в левую часть интерфейса" style="rounded=1;whiteSpace=wrap;html=1;" vertex="1" parent="1">
          <mxGeometry x="234" y="440" width="120" height="60" as="geometry" />
        </mxCell>
        <mxCell id="lf4h5KO6Hu7A6829tgaT-9" value="Да" style="text;html=1;align=center;verticalAlign=middle;resizable=0;points=[];autosize=1;strokeColor=none;fillColor=none;" vertex="1" parent="1">
          <mxGeometry x="314" y="338" width="40" height="30" as="geometry" />
        </mxCell>
        <mxCell id="lf4h5KO6Hu7A6829tgaT-16" style="edgeStyle=orthogonalEdgeStyle;rounded=0;orthogonalLoop=1;jettySize=auto;html=1;entryX=0.5;entryY=0;entryDx=0;entryDy=0;" edge="1" parent="1" source="lf4h5KO6Hu7A6829tgaT-11" target="lf4h5KO6Hu7A6829tgaT-15">
          <mxGeometry relative="1" as="geometry" />
        </mxCell>
        <mxCell id="lf4h5KO6Hu7A6829tgaT-11" value="Создание последовательности ходов для запутывания кубика" style="rounded=1;whiteSpace=wrap;html=1;" vertex="1" parent="1">
          <mxGeometry x="336" y="530" width="156" height="70" as="geometry" />
        </mxCell>
        <mxCell id="lf4h5KO6Hu7A6829tgaT-14" value="Нет" style="text;html=1;align=center;verticalAlign=middle;resizable=0;points=[];autosize=1;strokeColor=none;fillColor=none;" vertex="1" parent="1">
          <mxGeometry x="440" y="440" width="40" height="30" as="geometry" />
        </mxCell>
        <mxCell id="lf4h5KO6Hu7A6829tgaT-19" style="edgeStyle=orthogonalEdgeStyle;rounded=0;orthogonalLoop=1;jettySize=auto;html=1;" edge="1" parent="1" source="lf4h5KO6Hu7A6829tgaT-15" target="lf4h5KO6Hu7A6829tgaT-18">
          <mxGeometry relative="1" as="geometry" />
        </mxCell>
        <mxCell id="lf4h5KO6Hu7A6829tgaT-15" value="Отрисовка последовательности ходов для запутывания кубика" style="rounded=1;whiteSpace=wrap;html=1;" vertex="1" parent="1">
          <mxGeometry x="337" y="650" width="154" height="70" as="geometry" />
        </mxCell>
        <mxCell id="lf4h5KO6Hu7A6829tgaT-18" value="Добавление руководства для сборки кубика" style="rounded=1;whiteSpace=wrap;html=1;" vertex="1" parent="1">
          <mxGeometry x="337" y="770" width="154" height="70" as="geometry" />
        </mxCell>
      </root>
    </mxGraphModel>
  </diagram>
</mxfile>
